<svg width="21" height="8" viewBox="0 0 21 8" fill="none" xmlns="http://www.w3.org/2000/svg">
<rect width="21" height="8" fill="#E5E5E5"/>
<g id="Career Page" clip-path="url(#clip0_0_1)">
<rect width="1600" height="3983" transform="translate(-383 -1246)" fill="white"/>
<g id="Careers Section">
<rect id="BG" width="1280" height="949" transform="matrix(1 0 0 -1 -223 672)" fill="#ECF8F9"/>
<g id="Career 1">
<rect id="BG_2" x="-145" y="-199" width="354" height="243" fill="white"/>
<g id="Apply">
<path id="Icon" d="M20.3536 4.35355C20.5488 4.15829 20.5488 3.84171 20.3536 3.64645L17.1716 0.464466C16.9763 0.269204 16.6597 0.269204 16.4645 0.464466C16.2692 0.659728 16.2692 0.976311 16.4645 1.17157L19.2929 4L16.4645 6.82843C16.2692 7.02369 16.2692 7.34027 16.4645 7.53553C16.6597 7.7308 16.9763 7.7308 17.1716 7.53553L20.3536 4.35355ZM0 4.5L20 4.5V3.5L0 3.5L0 4.5Z" fill="#232536"/>
</g>
</g>
</g>
</g>
<defs>
<clipPath id="clip0_0_1">
<rect width="1600" height="3983" fill="white" transform="translate(-383 -1246)"/>
</clipPath>
</defs>
</svg>
